<?xml version="1.0" encoding="utf-8"?>
<!-- Generator: Adobe Illustrator 26.3.1, SVG Export Plug-In . SVG Version: 6.00 Build 0)  -->
<svg version="1.1" id="Layer_1" xmlns="http://www.w3.org/2000/svg" xmlns:xlink="http://www.w3.org/1999/xlink" x="0px" y="0px"
	 viewBox="0 0 272.5 298.2" style="enable-background:new 0 0 272.5 298.2;" xml:space="preserve">
<style type="text/css">
	.st0{fill:#FFCA61;}
	.st1{fill:#F4F1EE;}
	.st2{fill:#FEE784;}
</style>
<g>
	<path class="st0" d="M262.3,265.7H10.2c-5.6,0-10.2-4.6-10.2-10.2V37.4c0-5.6,4.6-10.2,10.2-10.2h92.4c4.4,0,8.2,2.8,9.6,6.9
		l4.2,12.5c1.4,4.1,5.3,6.9,9.6,6.9h136.2c5.6,0,10.2,4.6,10.2,10.2v191.9C272.5,261.2,267.9,265.7,262.3,265.7z"/>
	<path class="st1" d="M249.4,194.1H24.6c-4.5,0-8.1-3.6-8.1-8.1V74.4c0-4.5,3.6-8.1,8.1-8.1h224.9c4.5,0,8.1,3.6,8.1,8.1V186
		C257.5,190.4,253.9,194.1,249.4,194.1z"/>
	<path class="st2" d="M262.3,265.7H10.2c-5.6,0-10.2-3.6-10.2-8.1V83.9c0-4.5,4.6-8.1,10.2-8.1h92.4c4.4,0,8.2,2.2,9.6,5.5l4.2,9.9
		c1.4,3.3,5.3,5.5,9.6,5.5h136.2c5.6,0,10.2,3.6,10.2,8.1v152.8C272.5,262.1,267.9,265.7,262.3,265.7z"/>
</g>
</svg>
